<?xml version="1.0" standalone="no"?>
<!DOCTYPE svg PUBLIC "-//W3C//DTD SVG 20010904//EN"
 "http://www.w3.org/TR/2001/REC-SVG-20010904/DTD/svg10.dtd">
<svg version="1.0" xmlns="http://www.w3.org/2000/svg"
 width="1024.000000pt" height="1024.000000pt" viewBox="0 0 1024.000000 1024.000000"
 preserveAspectRatio="xMidYMid meet">

<g transform="translate(0.000000,1024.000000) scale(0.100000,-0.100000)"
fill="#000000" stroke="none">
<path d="M4800 9350 c-651 -51 -1324 -266 -1880 -600 -307 -185 -533 -362
-801 -630 -339 -339 -558 -640 -779 -1075 -416 -817 -549 -1786 -374 -2732
160 -868 629 -1721 1267 -2304 689 -631 1489 -1003 2397 -1115 181 -23 744
-26 910 -6 285 35 599 98 825 167 927 282 1733 880 2270 1685 387 580 611
1207 691 1932 24 210 24 674 0 888 -79 731 -291 1333 -673 1913 -296 449 -693
851 -1143 1156 -339 229 -647 381 -1040 511 -292 97 -573 159 -881 196 -155
18 -630 27 -789 14z m801 -816 c85 -47 129 -122 129 -222 0 -67 -17 -115 -56
-161 -32 -38 -41 -23 123 -192 l113 -116 0 -221 0 -222 -110 0 -110 0 0 183 0
182 -142 142 c-81 79 -160 149 -182 159 -91 42 -148 134 -148 240 0 79 27 139
89 194 85 75 195 87 294 34z m1432 6 c55 -29 83 -55 115 -110 36 -60 38 -173
5 -236 -26 -48 -86 -105 -144 -134 -23 -12 -104 -83 -181 -158 l-139 -137 1
-180 2 -180 -106 -3 -106 -3 0 227 0 226 130 132 129 131 -25 32 c-50 64 -67
161 -43 247 18 65 100 141 179 167 41 14 137 3 183 -21z m-2190 -712 l2 -436
-63 -17 c-146 -40 -263 -156 -306 -304 -14 -49 -16 -185 -16 -1212 0 -1108 1
-1160 19 -1218 46 -149 168 -267 316 -305 51 -14 159 -16 757 -16 l698 0 0
-865 c0 -684 -3 -866 -12 -870 -7 -2 -157 -45 -333 -95 -310 -89 -494 -144
-1358 -399 -224 -67 -412 -121 -418 -121 -15 0 -12 870 4 874 214 59 346 115
471 199 187 125 363 323 450 505 35 73 31 118 -15 156 -62 52 -137 24 -197
-75 -228 -374 -549 -555 -1061 -600 -152 -13 -512 -7 -580 11 -173 43 -306
187 -356 385 -17 66 -35 238 -35 331 l0 61 158 6 c182 6 274 26 383 83 108 57
148 116 127 191 -22 79 -113 93 -204 31 -72 -49 -162 -69 -331 -76 l-143 -5 0
227 c0 325 7 316 -248 316 -127 0 -182 4 -207 14 -40 17 -69 67 -62 105 3 14
107 246 232 515 124 269 235 517 247 550 19 55 22 94 29 381 8 323 13 384 48
545 57 257 186 529 364 765 79 104 250 274 355 354 278 210 619 355 982 416
98 17 252 34 283 31 16 -1 18 -27 20 -438z m2555 -702 c26 -18 51 -47 67 -79
l25 -51 0 -1133 c0 -1002 -2 -1138 -16 -1171 -19 -47 -58 -88 -107 -113 -36
-19 -76 -20 -1235 -26 -904 -4 -1211 -3 -1253 6 -72 15 -131 59 -161 119 l-23
47 -3 1105 c-1 750 1 1121 8 1156 13 63 66 129 124 155 39 18 94 19 1287 16
l1246 -2 41 -29z m1144 -43 c159 -87 171 -321 23 -425 -63 -44 -136 -55 -225
-34 l-73 18 -123 -124 -124 -123 -145 -3 -145 -3 0 110 0 111 98 0 98 0 121
123 c112 114 121 125 126 170 23 175 210 266 369 180z m-583 -1442 l54 -1 131
-129 131 -128 33 20 c19 11 59 21 95 24 174 14 312 -153 263 -319 -34 -118
-124 -188 -242 -188 -71 0 -119 17 -169 61 -45 40 -66 79 -79 149 -11 53 -16
60 -137 178 l-126 122 -92 0 -91 0 0 109 0 110 88 -3 c48 -2 111 -4 141 -5z
m-1267 -1478 c-2 -87 -1 -172 2 -188 4 -21 45 -70 138 -166 105 -107 143 -139
180 -153 56 -21 129 -95 149 -152 31 -93 6 -206 -62 -273 -51 -51 -103 -71
-184 -71 -102 0 -170 39 -222 127 -48 82 -39 199 22 278 l24 33 -129 126 -130
126 0 235 0 235 108 0 107 0 -3 -157z"/>
<path d="M3428 6260 c-73 -13 -150 -38 -185 -59 -90 -56 -88 -169 5 -208 35
-15 41 -14 117 11 182 60 343 40 474 -58 50 -37 117 -36 154 2 58 61 41 133
-46 200 -65 50 -94 64 -182 91 -79 25 -258 36 -337 21z"/>
<path d="M3443 5734 c-119 -59 -114 -277 8 -339 117 -61 249 65 224 213 -19
115 -131 175 -232 126z"/>
<path d="M5578 6603 c-19 -21 -87 -210 -268 -747 -231 -683 -243 -720 -229
-745 14 -26 17 -26 138 -29 97 -2 128 1 147 13 17 11 35 53 75 175 l53 160
260 -2 261 -3 55 -158 c35 -100 62 -164 75 -174 16 -11 46 -14 141 -11 129 3
154 12 154 53 0 19 -102 327 -416 1250 -45 132 -73 198 -91 218 l-27 27 -151
0 -151 0 -26 -27z m352 -885 c0 -5 -79 -8 -175 -8 -96 0 -175 2 -175 4 0 2 25
82 56 177 31 96 70 217 86 269 l31 95 88 -265 c49 -146 89 -268 89 -272z"/>
<path d="M6682 6618 c-9 -9 -12 -191 -12 -759 0 -682 1 -748 17 -760 11 -10
55 -15 144 -17 118 -4 128 -3 148 17 21 21 21 23 21 754 0 647 -2 735 -16 755
-14 21 -22 22 -153 22 -93 0 -141 -4 -149 -12z"/>
<path d="M7011 5904 c0 -11 3 -14 6 -6 3 7 2 16 -1 19 -3 4 -6 -2 -5 -13z"/>
</g>
</svg>
